<svg width="48" height="48" viewBox="0 0 48 48" fill="none" xmlns="http://www.w3.org/2000/svg">
<path d="M9 42C8.16667 42 7.45833 41.7083 6.875 41.125C6.29167 40.5417 6 39.8333 6 39V17.25C6 16.4167 6.29167 15.7083 6.875 15.125C7.45833 14.5417 8.16667 14.25 9 14.25H14.25V9C14.25 8.16667 14.5417 7.45833 15.125 6.875C15.7083 6.29167 16.4167 6 17.25 6H30.75C31.5833 6 32.2917 6.29167 32.875 6.875C33.4583 7.45833 33.75 8.16667 33.75 9V22.5H39C39.8333 22.5 40.5417 22.7917 41.125 23.375C41.7083 23.9583 42 24.6667 42 25.5V39C42 39.8333 41.7083 40.5417 41.125 41.125C40.5417 41.7083 39.8333 42 39 42H26.65V33.75H21.35V42H9ZM9 39H14.25V33.75H9V39ZM9 30.75H14.25V25.5H9V30.75ZM9 22.5H14.25V17.25H9V22.5ZM17.25 30.75H22.5V25.5H17.25V30.75ZM17.25 22.5H22.5V17.25H17.25V22.5ZM17.25 14.25H22.5V9H17.25V14.25ZM25.5 30.75H30.75V25.5H25.5V30.75ZM25.5 22.5H30.75V17.25H25.5V22.5ZM25.5 14.25H30.75V9H25.5V14.25ZM33.75 39H39V33.75H33.75V39ZM33.75 30.75H39V25.5H33.75V30.75Z" fill="#303441"/>
</svg>
