<svg width="48" height="48" viewBox="0 0 48 48" fill="none" xmlns="http://www.w3.org/2000/svg">
<path d="M7 39C6.16667 39 5.45833 38.7083 4.875 38.125C4.29167 37.5417 4 36.8333 4 36V21.95C4 21.55 4.08333 21.1583 4.25 20.775C4.41667 20.3917 4.63333 20.0667 4.9 19.8L10.8 13.9C11.0667 13.6333 11.3917 13.4167 11.775 13.25C12.1583 13.0833 12.55 13 12.95 13H14.7V10.5C14.7 10.0667 14.8417 9.70833 15.125 9.425C15.4083 9.14167 15.7667 9 16.2 9C16.6333 9 16.9917 9.14167 17.275 9.425C17.5583 9.70833 17.7 10.0667 17.7 10.5V13H35.05C35.45 13 35.8417 13.0833 36.225 13.25C36.6083 13.4167 36.9333 13.6333 37.2 13.9L43.1 19.8C43.3667 20.0667 43.5833 20.3917 43.75 20.775C43.9167 21.1583 44 21.55 44 21.95V36C44 36.8333 43.7083 37.5417 43.125 38.125C42.5417 38.7083 41.8333 39 41 39H7ZM32 36H41V21.95L36.5 17.45L32 21.95V36ZM7 36H29V24H7V36Z" fill="#303441"/>
</svg>
