<svg width="48" height="48" viewBox="0 0 48 48" fill="none" xmlns="http://www.w3.org/2000/svg">
<path d="M5.5 40C5.06667 40 4.70833 39.8583 4.425 39.575C4.14167 39.2917 4 38.9333 4 38.5V20.6C4 20.4 4.03333 20.2167 4.1 20.05C4.16667 19.8833 4.28333 19.7167 4.45 19.55L14.95 9.05C15.1167 8.88333 15.2833 8.76667 15.45 8.7C15.6167 8.63333 15.8 8.6 16 8.6C16.2 8.6 16.3833 8.63333 16.55 8.7C16.7167 8.76667 16.8833 8.88333 17.05 9.05L27.55 19.55C27.7167 19.7167 27.8333 19.8833 27.9 20.05C27.9667 20.2167 28 20.4 28 20.6V38.5C28 38.9333 27.8583 39.2917 27.575 39.575C27.2917 39.8583 26.9333 40 26.5 40H5.5ZM7 37H14.5V32.5C14.5 32.0667 14.6417 31.7083 14.925 31.425C15.2083 31.1417 15.5667 31 16 31C16.4333 31 16.7917 31.1417 17.075 31.425C17.3583 31.7083 17.5 32.0667 17.5 32.5V37H25V21.25L16 12.25L7 21.25V37ZM16 25.5C15.5667 25.5 15.2083 25.3583 14.925 25.075C14.6417 24.7917 14.5 24.4333 14.5 24C14.5 23.6 14.65 23.25 14.95 22.95C15.25 22.65 15.6167 22.5 16.05 22.5C16.45 22.5 16.7917 22.6417 17.075 22.925C17.3583 23.2083 17.5 23.5667 17.5 24C17.5 24.4333 17.3583 24.7917 17.075 25.075C16.7917 25.3583 16.4333 25.5 16 25.5ZM34.5 40C34.0667 40 33.7083 39.8583 33.425 39.575C33.1417 39.2917 33 38.9333 33 38.5V18.65C33 18.5833 32.9333 18.4167 32.8 18.15L25.45 10.8C24.9167 10.2667 24.7917 9.66667 25.075 9C25.3583 8.33333 25.8667 8 26.6 8C26.8333 8 27.05 8.04167 27.25 8.125C27.45 8.20833 27.6333 8.33333 27.8 8.5L35.55 16.25C35.7167 16.4167 35.8333 16.5833 35.9 16.75C35.9667 16.9167 36 17.1 36 17.3V38.5C36 38.9333 35.8583 39.2917 35.575 39.575C35.2917 39.8583 34.9333 40 34.5 40ZM42.5 40C42.0667 40 41.7083 39.8583 41.425 39.575C41.1417 39.2917 41 38.9333 41 38.5V15.35C41 15.2833 40.9333 15.1167 40.8 14.85L36.75 10.8C36.2167 10.2667 36.0917 9.66667 36.375 9C36.6583 8.33333 37.1667 8 37.9 8C38.1333 8 38.35 8.04167 38.55 8.125C38.75 8.20833 38.9333 8.33333 39.1 8.5L43.55 12.95C43.7167 13.1167 43.8333 13.2833 43.9 13.45C43.9667 13.6167 44 13.8 44 14V38.5C44 38.9333 43.8583 39.2917 43.575 39.575C43.2917 39.8583 42.9333 40 42.5 40Z" fill="#303441"/>
</svg>
