<svg width="48" height="48" viewBox="0 0 48 48" fill="none" xmlns="http://www.w3.org/2000/svg">
<path d="M7.6 38V8C7.6 7.16667 7.89167 6.45833 8.475 5.875C9.05833 5.29167 9.76667 5 10.6 5H24.85C25.4833 5 26.0167 5.21667 26.45 5.65C26.8833 6.08333 27.1 6.61667 27.1 7.25H32C32.8333 7.25 33.5417 7.54167 34.125 8.125C34.7083 8.70833 35 9.41667 35 10.25V23.5C35 23.9333 34.8583 24.2917 34.575 24.575C34.2917 24.8583 33.9333 25 33.5 25C33.0667 25 32.7083 24.8583 32.425 24.575C32.1417 24.2917 32 23.9333 32 23.5V10.25H27.1V39.5C27.1 39.9333 26.9583 40.2917 26.675 40.575C26.3917 40.8583 26.0333 41 25.6 41H4.5C4.06667 41 3.70833 40.8583 3.425 40.575C3.14167 40.2917 3 39.9333 3 39.5C3 39.0667 3.14167 38.7083 3.425 38.425C3.70833 38.1417 4.06667 38 4.5 38H7.6ZM19.55 25C20.1167 25 20.5917 24.8083 20.975 24.425C21.3583 24.0417 21.55 23.5667 21.55 23C21.55 22.4333 21.3583 21.9583 20.975 21.575C20.5917 21.1917 20.1167 21 19.55 21C18.9833 21 18.5083 21.1917 18.125 21.575C17.7417 21.9583 17.55 22.4333 17.55 23C17.55 23.5667 17.7417 24.0417 18.125 24.425C18.5083 24.8083 18.9833 25 19.55 25ZM10.6 38H24.1V8H10.6V38ZM37.55 37.95L39 41.35C39.1333 41.65 39.3667 41.8 39.7 41.8C40.0333 41.8 40.2667 41.65 40.4 41.35L41.85 37.95L45.5 36.35C45.8 36.2167 45.95 35.9833 45.95 35.65C45.95 35.3167 45.8 35.0833 45.5 34.95L41.85 33.4L40.4 30.15C40.2667 29.85 40.0333 29.7 39.7 29.7C39.3667 29.7 39.1333 29.85 39 30.15L37.55 33.4L33.9 34.95C33.6 35.0833 33.45 35.3167 33.45 35.65C33.45 35.9833 33.6 36.2167 33.9 36.35L37.55 37.95Z" fill="#303441"/>
</svg>
