<svg width="48" height="48" viewBox="0 0 48 48" fill="none" xmlns="http://www.w3.org/2000/svg">
<path d="M15.7525 36.25H19.9525C20.2192 36.25 20.4442 36.1583 20.6275 35.975C20.8108 35.7917 20.9025 35.5667 20.9025 35.3C20.9025 35.0333 20.8108 34.8083 20.6275 34.625C20.4442 34.4417 20.2192 34.35 19.9525 34.35H16.9025V32.05H20.1525C20.3525 32.05 20.5275 31.975 20.6775 31.825C20.8275 31.675 20.9025 31.5 20.9025 31.3V26.9C20.9025 26.7 20.8275 26.525 20.6775 26.375C20.5275 26.225 20.3525 26.15 20.1525 26.15H15.9525C15.6858 26.15 15.4608 26.2417 15.2775 26.425C15.0942 26.6083 15.0025 26.8333 15.0025 27.1C15.0025 27.3667 15.0942 27.5917 15.2775 27.775C15.4608 27.9583 15.6858 28.05 15.9525 28.05H19.0025V30.15H15.7525C15.5525 30.15 15.3775 30.225 15.2275 30.375C15.0775 30.525 15.0025 30.7 15.0025 30.9V35.5C15.0025 35.7 15.0775 35.875 15.2275 36.025C15.3775 36.175 15.5525 36.25 15.7525 36.25ZM30.2525 36.25C30.5192 36.25 30.7442 36.1583 30.9275 35.975C31.1108 35.7917 31.2025 35.5667 31.2025 35.3V27.1C31.2025 26.8333 31.1108 26.6083 30.9275 26.425C30.7442 26.2417 30.5192 26.15 30.2525 26.15C29.9858 26.15 29.7608 26.2417 29.5775 26.425C29.3942 26.6083 29.3025 26.8333 29.3025 27.1V30.15H27.2025V27.1C27.2025 26.8333 27.1108 26.6083 26.9275 26.425C26.7442 26.2417 26.5192 26.15 26.2525 26.15C25.9858 26.15 25.7608 26.2417 25.5775 26.425C25.3942 26.6083 25.3025 26.8333 25.3025 27.1V31.3C25.3025 31.5 25.3775 31.675 25.5275 31.825C25.6775 31.975 25.8525 32.05 26.0525 32.05H29.3025V35.3C29.3025 35.5667 29.3942 35.7917 29.5775 35.975C29.7608 36.1583 29.9858 36.25 30.2525 36.25ZM8.0525 42C7.2525 42 6.5525 41.7 5.9525 41.1C5.3525 40.5 5.0525 39.8 5.0525 39V22.05C4.11917 21.25 3.5025 20.2667 3.2025 19.1C2.9025 17.9333 2.93583 16.7667 3.3025 15.6L5.4525 8.85C5.71917 7.95 6.18583 7.25 6.8525 6.75C7.51917 6.25 8.28583 6 9.1525 6H36.8025C37.7358 6 38.5525 6.25833 39.2525 6.775C39.9525 7.29167 40.4358 7.98333 40.7025 8.85L42.9025 15.6C43.2692 16.7667 43.2942 17.9333 42.9775 19.1C42.6608 20.2667 42.0358 21.25 41.1025 22.05V39C41.1025 39.8 40.8025 40.5 40.2025 41.1C39.6025 41.7 38.9025 42 38.1025 42H8.0525ZM27.6025 20.5C28.5692 20.5 29.3858 20.1833 30.0525 19.55C30.7192 18.9167 30.9858 18.15 30.8525 17.25L29.6025 9H24.6025V17.25C24.6025 18.1167 24.8858 18.875 25.4525 19.525C26.0192 20.175 26.7358 20.5 27.6025 20.5ZM18.2525 20.5C19.1858 20.5 19.9775 20.1833 20.6275 19.55C21.2775 18.9167 21.6025 18.15 21.6025 17.25V9H16.6025L15.3525 17.25C15.2192 18.1167 15.4525 18.875 16.0525 19.525C16.6525 20.175 17.3858 20.5 18.2525 20.5ZM9.1525 20.5C9.9525 20.5 10.6442 20.225 11.2275 19.675C11.8108 19.125 12.1525 18.45 12.2525 17.65L13.5525 9H8.5525L6.2525 16.3C5.91917 17.3333 6.0525 18.2917 6.6525 19.175C7.2525 20.0583 8.08583 20.5 9.1525 20.5ZM37.0025 20.5C38.0692 20.5 38.9108 20.0667 39.5275 19.2C40.1442 18.3333 40.2858 17.3667 39.9525 16.3L37.6525 9H32.6525L33.9525 17.65C34.0525 18.45 34.3942 19.125 34.9775 19.675C35.5608 20.225 36.2358 20.5 37.0025 20.5ZM8.0525 39H38.1025V23.45C38.1358 23.4833 38.0275 23.5 37.7775 23.5H37.0025C36.1692 23.5 35.3775 23.325 34.6275 22.975C33.8775 22.625 33.1358 22.0833 32.4025 21.35C31.8692 22.0167 31.2025 22.5417 30.4025 22.925C29.6025 23.3083 28.7192 23.5 27.7525 23.5C26.7525 23.5 25.8942 23.3583 25.1775 23.075C24.4608 22.7917 23.7692 22.3167 23.1025 21.65C22.6025 22.25 21.9692 22.7083 21.2025 23.025C20.4358 23.3417 19.5692 23.5 18.6025 23.5C17.5692 23.5 16.6525 23.3167 15.8525 22.95C15.0525 22.5833 14.3692 22.05 13.8025 21.35C13.0025 22.05 12.2192 22.5833 11.4525 22.95C10.6858 23.3167 9.91917 23.5 9.1525 23.5H8.4775C8.26083 23.5 8.11917 23.4833 8.0525 23.45V39Z" fill="#303441"/>
</svg>
