<svg width="48" height="48" viewBox="0 0 48 48" fill="none" xmlns="http://www.w3.org/2000/svg">
<path d="M22.3 44C21.8333 44 21.4417 43.8417 21.125 43.525C20.8083 43.2083 20.65 42.8167 20.65 42.35V31.75C20.65 31.7833 20.6667 31.6667 20.7 31.4L23.5 23.15C23.5667 22.9167 23.7 22.7167 23.9 22.55C24.1 22.3833 24.3833 22.3 24.75 22.3H39.9C40.2667 22.3 40.5417 22.375 40.725 22.525C40.9083 22.675 41.05 22.8833 41.15 23.15L43.95 31.4C43.9833 31.4667 44 31.5833 44 31.75V42.35C44 42.8167 43.8417 43.2083 43.525 43.525C43.2083 43.8417 42.8167 44 42.35 44C41.8833 44 41.4917 43.8417 41.175 43.525C40.8583 43.2083 40.7 42.8167 40.7 42.35V40.65H23.95V42.35C23.95 42.8167 23.7917 43.2083 23.475 43.525C23.1583 43.8417 22.7667 44 22.3 44ZM23.3 30.05H41.35L39.45 24.3H25.2L23.3 30.05ZM26 37.35C26.5667 37.35 27.0333 37.1667 27.4 36.8C27.7667 36.4333 27.95 35.9667 27.95 35.4C27.95 34.8333 27.7667 34.3667 27.4 34C27.0333 33.6333 26.5667 33.45 26 33.45C25.4333 33.45 24.9667 33.6333 24.6 34C24.2333 34.3667 24.05 34.8333 24.05 35.4C24.05 35.9667 24.2333 36.4333 24.6 36.8C24.9667 37.1667 25.4333 37.35 26 37.35ZM38.65 37.35C39.2167 37.35 39.6833 37.1667 40.05 36.8C40.4167 36.4333 40.6 35.9667 40.6 35.4C40.6 34.8333 40.4167 34.3667 40.05 34C39.6833 33.6333 39.2167 33.45 38.65 33.45C38.0833 33.45 37.6167 33.6333 37.25 34C36.8833 34.3667 36.7 34.8333 36.7 35.4C36.7 35.9667 36.8833 36.4333 37.25 36.8C37.6167 37.1667 38.0833 37.35 38.65 37.35ZM12 28.6V24.95H15.65V28.6H12ZM22.35 15.65V12H26V15.65H22.35ZM12 36.3V32.65H15.65V36.3H12ZM12 44V40.35H15.65V44H12ZM4 44V19.95C4 19.1167 4.29167 18.4083 4.875 17.825C5.45833 17.2417 6.16667 16.95 7 16.95H14.35V7C14.35 6.16667 14.6417 5.45833 15.225 4.875C15.8083 4.29167 16.5167 4 17.35 4H31C31.8333 4 32.5417 4.29167 33.125 4.875C33.7083 5.45833 34 6.16667 34 7V17H31V7H17.35V19.95H7V44H4ZM22.65 38.65H42V32.05H22.65V38.65Z" fill="#303441"/>
</svg>
