<svg width="48" height="48" viewBox="0 0 48 48" fill="none" xmlns="http://www.w3.org/2000/svg">
<path d="M5 45C4.2 45 3.5 44.6917 2.9 44.075C2.3 43.4583 2 42.7667 2 42V20.55C2 20.1167 2.14167 19.7583 2.425 19.475C2.70833 19.1917 3.06667 19.05 3.5 19.05C3.93333 19.05 4.29167 19.1917 4.575 19.475C4.85833 19.7583 5 20.1167 5 20.55V42H33.95C34.3833 42 34.7417 42.1417 35.025 42.425C35.3083 42.7083 35.45 43.0667 35.45 43.5C35.45 43.9333 35.3083 44.2917 35.025 44.575C34.7417 44.8583 34.3833 45 33.95 45H5ZM11 39C10.2 39 9.5 38.6917 8.9 38.075C8.3 37.4583 8 36.7667 8 36V13.1C8 12.2667 8.29167 11.5583 8.875 10.975C9.45833 10.3917 10.1667 10.1 11 10.1H20.1V6C20.1 5.23333 20.4083 4.54167 21.025 3.925C21.6417 3.30833 22.3333 3 23.1 3H30.9C31.7 3 32.4 3.30833 33 3.925C33.6 4.54167 33.9 5.23333 33.9 6V10.1H43C43.8333 10.1 44.5417 10.3917 45.125 10.975C45.7083 11.5583 46 12.2667 46 13.1V36C46 36.7667 45.6917 37.4583 45.075 38.075C44.4583 38.6917 43.7667 39 43 39H11ZM23.1 10.1H30.9V6H23.1V10.1ZM11 36H43V13.1H11V36Z" fill="#303441"/>
</svg>
