<svg width="48" height="48" viewBox="0 0 48 48" fill="none" xmlns="http://www.w3.org/2000/svg">
<path d="M7 44C6.16667 44 5.45833 43.7083 4.875 43.125C4.29167 42.5417 4 41.8333 4 41V22C4 21.4 4.15833 20.8417 4.475 20.325C4.79167 19.8083 5.23333 19.4333 5.8 19.2L15.9 14.9C16.4 14.7 16.875 14.7333 17.325 15C17.775 15.2667 18 15.6833 18 16.25V18L25.95 14.8C26.45 14.6 26.9167 14.65 27.35 14.95C27.7833 15.25 28 15.6667 28 16.2V20H44V41C44 41.8333 43.7083 42.5417 43.125 43.125C42.5417 43.7083 41.8333 44 41 44H7ZM41 23H25V18.4L15 22.4V18.45L7 22V41H41V23ZM24 36C24.4333 36 24.7917 35.8583 25.075 35.575C25.3583 35.2917 25.5 34.9333 25.5 34.5V29.5C25.5 29.0667 25.3583 28.7083 25.075 28.425C24.7917 28.1417 24.4333 28 24 28C23.5667 28 23.2083 28.1417 22.925 28.425C22.6417 28.7083 22.5 29.0667 22.5 29.5V34.5C22.5 34.9333 22.6417 35.2917 22.925 35.575C23.2083 35.8583 23.5667 36 24 36ZM16 36C16.4333 36 16.7917 35.8583 17.075 35.575C17.3583 35.2917 17.5 34.9333 17.5 34.5V29.5C17.5 29.0667 17.3583 28.7083 17.075 28.425C16.7917 28.1417 16.4333 28 16 28C15.5667 28 15.2083 28.1417 14.925 28.425C14.6417 28.7083 14.5 29.0667 14.5 29.5V34.5C14.5 34.9333 14.6417 35.2917 14.925 35.575C15.2083 35.8583 15.5667 36 16 36ZM32 36C32.4333 36 32.7917 35.8583 33.075 35.575C33.3583 35.2917 33.5 34.9333 33.5 34.5V29.5C33.5 29.0667 33.3583 28.7083 33.075 28.425C32.7917 28.1417 32.4333 28 32 28C31.5667 28 31.2083 28.1417 30.925 28.425C30.6417 28.7083 30.5 29.0667 30.5 29.5V34.5C30.5 34.9333 30.6417 35.2917 30.925 35.575C31.2083 35.8583 31.5667 36 32 36ZM44 20H35L36.85 5.3C36.9167 4.93333 37.0833 4.625 37.35 4.375C37.6167 4.125 37.9333 4 38.3 4H40.7C41.0667 4 41.3833 4.125 41.65 4.375C41.9167 4.625 42.0833 4.93333 42.15 5.3L44 20Z" fill="#303441"/>
</svg>
