<svg width="48" height="48" viewBox="0 0 48 48" fill="none" xmlns="http://www.w3.org/2000/svg">
<path d="M7 45C6.16667 45 5.45833 44.7083 4.875 44.125C4.29167 43.5417 4 42.8333 4 42V12C4 11.1667 4.29167 10.4583 4.875 9.875C5.45833 9.29167 6.16667 9 7 9H20.5C21.3333 9 22.0417 9.29167 22.625 9.875C23.2083 10.4583 23.5 11.1667 23.5 12V17.25H41C41.8333 17.25 42.5417 17.5417 43.125 18.125C43.7083 18.7083 44 19.4167 44 20.25V42C44 42.8333 43.7083 43.5417 43.125 44.125C42.5417 44.7083 41.8333 45 41 45H7ZM7 42H12.25V36.75H7V42ZM7 33.75H12.25V28.5H7V33.75ZM7 25.5H12.25V20.25H7V25.5ZM7 17.25H12.25V12H7V17.25ZM15.25 42H20.5V36.75H15.25V42ZM15.25 33.75H20.5V28.5H15.25V33.75ZM15.25 25.5H20.5V20.25H15.25V25.5ZM15.25 17.25H20.5V12H15.25V17.25ZM23.5 42H41V20.25H23.5V25.5H27.5V28.5H23.5V33.75H27.5V36.75H23.5V42ZM32.75 28.5V25.5H35.75V28.5H32.75ZM32.75 36.75V33.75H35.75V36.75H32.75Z" fill="#303441"/>
<path d="M31 15C30.5667 15 30.2083 14.8583 29.925 14.575C29.6417 14.2917 29.5 13.9333 29.5 13.5V10.5H26.5C26.0667 10.5 25.7083 10.3583 25.425 10.075C25.1417 9.79167 25 9.43333 25 9C25 8.56667 25.1417 8.20833 25.425 7.925C25.7083 7.64167 26.0667 7.5 26.5 7.5H29.5V4.5C29.5 4.06667 29.6417 3.70833 29.925 3.425C30.2083 3.14167 30.5667 3 31 3C31.4333 3 31.7917 3.14167 32.075 3.425C32.3583 3.70833 32.5 4.06667 32.5 4.5V7.5H35.5C35.9333 7.5 36.2917 7.64167 36.575 7.925C36.8583 8.20833 37 8.56667 37 9C37 9.43333 36.8583 9.79167 36.575 10.075C36.2917 10.3583 35.9333 10.5 35.5 10.5H32.5V13.5C32.5 13.9333 32.3583 14.2917 32.075 14.575C31.7917 14.8583 31.4333 15 31 15Z" fill="#303441"/>
</svg>
