<svg width="48" height="48" viewBox="0 0 48 48" fill="none" xmlns="http://www.w3.org/2000/svg">
<path d="M7 42C6.16667 42 5.45833 41.7083 4.875 41.125C4.29167 40.5417 4 39.8333 4 39V9C4 8.16667 4.29167 7.45833 4.875 6.875C5.45833 6.29167 6.16667 6 7 6H20.5C21.3333 6 22.0417 6.29167 22.625 6.875C23.2083 7.45833 23.5 8.16667 23.5 9V14.25H41C41.8333 14.25 42.5417 14.5417 43.125 15.125C43.7083 15.7083 44 16.4167 44 17.25V39C44 39.8333 43.7083 40.5417 43.125 41.125C42.5417 41.7083 41.8333 42 41 42H7ZM7 39H20.5V33.75H7V39ZM7 30.75H20.5V25.5H7V30.75ZM7 22.5H20.5V17.25H7V22.5ZM7 14.25H20.5V9H7V14.25ZM23.5 39H41V17.25H23.5V39ZM27.5 25.5V22.5H35.75V25.5H27.5ZM27.5 33.75V30.75H35.75V33.75H27.5Z" fill="#303441"/>
</svg>
