<svg width="48" height="48" viewBox="0 0 48 48" fill="none" xmlns="http://www.w3.org/2000/svg">
<path d="M5.5 16C5.06667 16 4.70833 15.8583 4.425 15.575C4.14167 15.2917 4 14.9333 4 14.5C4 14.0667 4.14167 13.7083 4.425 13.425C4.70833 13.1417 5.06667 13 5.5 13H12.5C12.9333 13 13.2917 13.1417 13.575 13.425C13.8583 13.7083 14 14.0667 14 14.5C14 14.9333 13.8583 15.2917 13.575 15.575C13.2917 15.8583 12.9333 16 12.5 16H5.5ZM5.5 26.5C5.06667 26.5 4.70833 26.3583 4.425 26.075C4.14167 25.7917 4 25.4333 4 25C4 24.5667 4.14167 24.2083 4.425 23.925C4.70833 23.6417 5.06667 23.5 5.5 23.5H12.5C12.9333 23.5 13.2917 23.6417 13.575 23.925C13.8583 24.2083 14 24.5667 14 25C14 25.4333 13.8583 25.7917 13.575 26.075C13.2917 26.3583 12.9333 26.5 12.5 26.5H5.5ZM40.85 35.95L33.9 29C33.0333 29.6667 32.1 30.1667 31.1 30.5C30.1 30.8333 29.0667 31 28 31C25.2333 31 22.875 30.025 20.925 28.075C18.975 26.125 18 23.7667 18 21C18 18.2333 18.975 15.875 20.925 13.925C22.875 11.975 25.2333 11 28 11C30.7667 11 33.125 11.975 35.075 13.925C37.025 15.875 38 18.2333 38 21C38 22.0667 37.8333 23.1 37.5 24.1C37.1667 25.1 36.6667 26.0333 36 26.9L42.95 33.85C43.25 34.15 43.4 34.5 43.4 34.9C43.4 35.3 43.25 35.65 42.95 35.95C42.65 36.25 42.3 36.4 41.9 36.4C41.5 36.4 41.15 36.25 40.85 35.95ZM28 28C29.9333 28 31.5833 27.3167 32.95 25.95C34.3167 24.5833 35 22.9333 35 21C35 19.0667 34.3167 17.4167 32.95 16.05C31.5833 14.6833 29.9333 14 28 14C26.0667 14 24.4167 14.6833 23.05 16.05C21.6833 17.4167 21 19.0667 21 21C21 22.9333 21.6833 24.5833 23.05 25.95C24.4167 27.3167 26.0667 28 28 28ZM5.5 37C5.06667 37 4.70833 36.8583 4.425 36.575C4.14167 36.2917 4 35.9333 4 35.5C4 35.0667 4.14167 34.7083 4.425 34.425C4.70833 34.1417 5.06667 34 5.5 34H22.5C22.9333 34 23.2917 34.1417 23.575 34.425C23.8583 34.7083 24 35.0667 24 35.5C24 35.9333 23.8583 36.2917 23.575 36.575C23.2917 36.8583 22.9333 37 22.5 37H5.5Z" fill="#303441"/>
</svg>
