<svg width="76" height="16" viewBox="0 0 76 16" fill="none" xmlns="http://www.w3.org/2000/svg">
<path d="M0.641336 12.942L7.85734 3.394H13.2253L5.98734 12.942H0.641336ZM0.641336 16V12.942L3.03934 12.37H13.0273V16H0.641336ZM0.993336 3.966V0.336H13.2253V3.394L10.7833 3.966H0.993336ZM15.1388 16V0.336H19.5388V16H15.1388ZM25.7067 10.5V7.332H28.5447C28.8821 7.332 29.1901 7.266 29.4687 7.134C29.7621 6.98733 29.9967 6.77467 30.1727 6.496C30.3487 6.20267 30.4367 5.84333 30.4367 5.418C30.4367 4.99267 30.3487 4.64067 30.1727 4.362C29.9967 4.06867 29.7621 3.856 29.4687 3.724C29.1901 3.57733 28.8821 3.504 28.5447 3.504H25.7067V0.336H29.4027C30.4147 0.336 31.3241 0.541333 32.1307 0.952C32.9521 1.348 33.5974 1.92733 34.0667 2.69C34.5507 3.438 34.7927 4.34733 34.7927 5.418C34.7927 6.474 34.5507 7.38333 34.0667 8.146C33.5974 8.90867 32.9521 9.49533 32.1307 9.906C31.3241 10.302 30.4147 10.5 29.4027 10.5H25.7067ZM22.1427 16V0.336H26.5427V16H22.1427ZM39.9294 10.5V7.332H42.7674C43.1047 7.332 43.4127 7.266 43.6914 7.134C43.9847 6.98733 44.2194 6.77467 44.3954 6.496C44.5714 6.20267 44.6594 5.84333 44.6594 5.418C44.6594 4.99267 44.5714 4.64067 44.3954 4.362C44.2194 4.06867 43.9847 3.856 43.6914 3.724C43.4127 3.57733 43.1047 3.504 42.7674 3.504H39.9294V0.336H43.6254C44.6374 0.336 45.5467 0.541333 46.3534 0.952C47.1747 1.348 47.82 1.92733 48.2894 2.69C48.7734 3.438 49.0154 4.34733 49.0154 5.418C49.0154 6.474 48.7734 7.38333 48.2894 8.146C47.82 8.90867 47.1747 9.49533 46.3534 9.906C45.5467 10.302 44.6374 10.5 43.6254 10.5H39.9294ZM36.3654 16V0.336H40.7654V16H36.3654ZM50.588 16V0.336H54.988V16H50.588ZM54.174 16V12.26H61.5V16H54.174ZM63.1779 16V0.336H67.5779V16H63.1779ZM66.7419 16V12.348H75.1459V16H66.7419ZM66.7419 9.796V6.232H74.3319V9.796H66.7419ZM66.7419 3.988V0.336H75.0139V3.988H66.7419Z" fill="#3772F7"/>
</svg>
